<svg width="76" height="24" viewBox="0 0 76 24" fill="none" xmlns="http://www.w3.org/2000/svg">
<g clip-path="url(#clip0)">
<path fill-rule="evenodd" clip-rule="evenodd" d="M3.33868 11.1942C3.39665 10.4283 3.74107 9.71405 4.30117 9.19823C4.86127 8.68241 5.5945 8.4042 6.35017 8.42079C8.37621 8.42079 9.3341 9.73046 9.38234 11.1942H3.34557H3.33868ZM6.32261 5.94152C3.22153 5.93452 0.327192 8.54685 0.327192 12.4969C0.327192 16.727 3.29044 19.1923 6.62583 19.1923C9.58908 19.1923 11.5393 17.4204 12.194 15.2423L9.71312 14.4509C9.31343 15.6835 8.40378 16.636 6.62583 16.636C5.75564 16.6548 4.91348 16.3229 4.28336 15.7127C3.65323 15.1024 3.28635 14.2636 3.26288 13.3793H12.2698C12.2974 13.3233 12.3456 12.9171 12.3456 12.4268C12.3456 8.47682 10.1197 5.93452 6.32261 5.93452V5.94152ZM20.7943 13.6315C20.7943 16.0687 19.3816 16.8671 17.7346 16.8671C16.5699 16.8671 15.9428 16.0967 15.9428 15.2493C15.9428 14.2198 16.6733 13.7085 17.583 13.5544L20.7943 13.0642V13.6315ZM23.6818 10.6059C23.6818 8.11263 22.2346 5.93452 18.4444 5.93452C15.4122 5.93452 13.4827 7.8605 13.2552 10.0176L15.9428 10.6269C16.0669 9.36628 16.9214 8.37177 18.465 8.37177C20.0845 8.37177 20.7943 9.2122 20.7943 10.2697C20.7943 10.704 20.5876 11.0681 19.8847 11.1662L16.7216 11.6564C14.6197 11.9646 13.0003 13.1972 13.0003 15.4244C13.0003 17.3994 14.599 19.1993 17.1764 19.1993C19.1749 19.1993 20.3946 18.1698 20.9735 17.2243C20.9735 18.2258 21.0768 18.7371 21.0975 18.8141H23.8334C23.8058 18.688 23.6818 17.9387 23.6818 16.8111V10.6059ZM28.1818 8.32274V6.31972H25.3219V18.8141H28.2576V12.8611C28.2576 10.5289 29.2981 9.19119 31.5723 9.19119C31.8824 9.19119 32.2063 9.2192 32.5371 9.26823V6.24268C32.2779 6.19428 32.0149 6.17083 31.7514 6.17264C30.132 6.17264 28.7675 6.96405 28.1818 8.32274ZM40.1037 5.96253C38.7323 5.96253 37.2645 6.55083 36.4582 7.99357V6.31271H33.5983V18.8071H36.534V11.5934C36.534 9.95458 37.4161 8.65191 39.0838 8.65191C40.9375 8.65191 41.6198 9.87754 41.6198 11.4183V18.8071H44.5554V10.9141C44.5554 8.16866 43.1083 5.96253 40.1037 5.96253ZM48.6282 11.1942C48.6862 10.4283 49.0306 9.71405 49.5907 9.19823C50.1508 8.68241 50.884 8.4042 51.6397 8.42079C53.6657 8.42079 54.6236 9.73046 54.6719 11.1942H48.6351H48.6282ZM51.6121 5.94152C48.4973 5.94152 45.6167 8.55386 45.6167 12.5039C45.6167 16.734 48.58 19.1993 51.9153 19.1993C54.8786 19.1993 56.8288 17.4274 57.4835 15.2493L55.0026 14.4509C54.596 15.6835 53.6933 16.636 51.9153 16.636C51.0452 16.6548 50.203 16.3229 49.5729 15.7127C48.9427 15.1024 48.5759 14.2636 48.5524 13.3793H57.5593C57.5869 13.3233 57.6351 12.9171 57.6351 12.4268C57.6351 8.47682 55.4092 5.93452 51.6121 5.93452V5.94152ZM74.753 10.0946V7.4543H72.1688V5.61235C72.1688 4.41893 71.7023 3.27439 70.872 2.43051C70.0416 1.58663 68.9155 1.11255 67.7412 1.11255C66.5669 1.11255 65.4407 1.58663 64.6103 2.43051C63.78 3.27439 63.3135 4.41893 63.3135 5.61235L63.3342 5.94853L63.0723 5.93452C60.5226 5.93452 58.5448 7.78346 58.5448 9.96158C58.5448 11.6845 59.6818 13.1132 61.8595 13.6034L63.6857 14.0237C64.6711 14.2198 65.1259 14.738 65.1259 15.4034C65.1259 16.1738 64.4919 16.8391 63.2791 16.8391C61.7079 16.8391 60.874 15.8376 60.7706 14.71L58.2209 15.4314C58.3656 16.8391 59.7369 19.1993 63.2997 19.1993C66.4422 19.1993 67.9583 17.0982 67.9583 15.2003C67.9583 13.3513 66.7454 11.9086 64.4161 11.4043L62.5417 11.0191C61.7837 10.858 61.3013 10.3748 61.3013 9.70945C61.3013 8.93906 62.0386 8.27372 63.0723 8.27372C63.7615 8.27372 64.2438 8.46982 64.5884 8.75696L64.6366 8.79198L66.0838 7.37025C65.8078 7.10407 65.5976 6.77529 65.4705 6.41076C65.381 6.15431 65.3344 5.88444 65.3327 5.61235C65.3327 5.29111 65.3951 4.97303 65.5165 4.67641C65.6379 4.37979 65.8158 4.11049 66.0399 3.88399C66.2641 3.65748 66.5301 3.47825 66.8226 3.35659C67.1152 3.23494 67.4285 3.17326 67.7446 3.17511C68.0596 3.17511 68.3714 3.23815 68.6624 3.36063C68.9533 3.48311 69.2177 3.66264 69.4404 3.88896C69.6631 4.11528 69.8397 4.38396 69.9602 4.67966C70.0808 4.97536 70.1428 5.29229 70.1428 5.61235C70.1424 6.23058 69.9108 6.82554 69.495 7.27676C69.0791 7.72798 68.5101 8.00174 67.9031 8.0426V10.1017H69.2607V15.2493C69.2607 17.5815 70.6803 18.9682 72.9544 18.9682C74.0157 18.9682 74.5739 18.7581 74.753 18.688V16.2228C74.4188 16.2859 74.08 16.321 73.74 16.3278C72.6512 16.3278 72.1688 15.8656 72.1688 14.759V10.1087H74.753" fill="#55B284"/>
</g>
<defs>
<clipPath id="clip0">
<rect width="74.9142" height="23.3066" fill="white" transform="translate(0.195068 0.626953)"/>
</clipPath>
</defs>
</svg>
