<svg width="105" height="31" viewBox="0 0 105 31" fill="none" xmlns="http://www.w3.org/2000/svg">
<g clip-path="url(#clip0)">
<path d="M51.707 23.7807V24.2238H49.5675V26.0342H51.3905V26.4773H49.5675V28.756H49.0991V23.7681H51.707V23.7807Z" fill="#191919"/>
<path d="M53.7579 25.11C54.239 25.0973 54.7074 25.2872 55.0366 25.6417C55.6949 26.4139 55.6949 27.5407 55.0366 28.3129C54.7074 28.6674 54.239 28.8573 53.7579 28.8446C53.2769 28.8573 52.8085 28.6674 52.4666 28.3129C51.8083 27.5407 51.8083 26.4139 52.4666 25.6417C52.8085 25.2872 53.2769 25.0973 53.7579 25.11ZM52.7958 25.9455C52.5426 26.2367 52.416 26.6038 52.4287 26.971C52.416 27.3508 52.5426 27.7179 52.7958 28.0091C53.049 28.2749 53.3908 28.4268 53.7579 28.4142C54.1251 28.4268 54.4669 28.2749 54.7074 28.0091C54.948 27.7179 55.0872 27.3508 55.0746 26.971C55.0872 26.5912 54.9606 26.224 54.7074 25.9455C54.4669 25.667 54.1251 25.5151 53.7579 25.5277C53.4035 25.5151 53.049 25.667 52.7958 25.9455Z" fill="#191919"/>
<path d="M57.8091 25.591C57.5432 25.5784 57.2774 25.6923 57.0875 25.8822C56.8596 26.0974 56.7456 26.4139 56.7456 26.819V28.756H56.3026V25.1859H56.7203L56.733 25.8316C56.8722 25.4518 57.2394 25.1479 57.8091 25.1479V25.591Z" fill="#191919"/>
<path d="M63.1642 26.4518V28.7559H62.7085V26.5024C62.7085 25.8821 62.4173 25.5529 61.9235 25.5529C61.3918 25.5529 60.9994 26.0087 60.9867 26.7303V28.7685H60.5436V26.5024C60.5436 25.8821 60.2398 25.5529 59.7587 25.5529C59.2143 25.5529 58.8345 26.0214 58.8345 26.781V28.7685H58.3914V25.1858H58.8092L58.8345 25.7302C59.0244 25.3377 59.4169 25.0972 59.8473 25.1099C60.379 25.1099 60.7335 25.3504 60.9108 25.8315C61.1007 25.401 61.5311 25.1099 62.0122 25.1099C62.7464 25.1099 63.1642 25.6416 63.1642 26.4518Z" fill="#191919"/>
<path d="M67.152 26.895V27.1482H64.3162C64.3542 27.9205 64.8606 28.4269 65.5569 28.4269C66.1139 28.4269 66.4811 28.199 66.6583 27.7559H67.1267C66.9115 28.4522 66.3545 28.8447 65.5569 28.8447C65.1011 28.8573 64.6581 28.6801 64.3416 28.3383C64.0251 27.9965 63.8731 27.5534 63.8731 26.9963C63.8478 26.5026 64.0124 26.0215 64.3289 25.6544C64.6327 25.2999 65.0758 25.11 65.5442 25.1227C66.5064 25.11 67.152 25.7557 67.152 26.895ZM64.3162 26.7431H66.6963C66.6963 25.9962 66.2405 25.5278 65.5316 25.5278C64.848 25.5278 64.3669 26.0342 64.3162 26.7431Z" fill="#191919"/>
<path d="M69.4815 25.591C69.2156 25.5784 68.9498 25.6923 68.7599 25.8822C68.532 26.0974 68.418 26.4139 68.418 26.819V28.756H67.9749V25.1859H68.3927L68.4054 25.8316C68.5446 25.4518 68.9118 25.1479 69.4815 25.1479V25.591Z" fill="#191919"/>
<path d="M70.5196 23.5654V28.756H70.0765V23.5654H70.5196Z" fill="#191919"/>
<path d="M74.3428 25.186L72.3299 30.288H71.8488L72.4692 28.7055L71.0766 25.186H71.5577L72.6338 27.9585L72.7097 28.2117L72.7857 27.9585L73.8618 25.186H74.3428Z" fill="#191919"/>
<path d="M77.8496 23.7808C78.7865 23.7808 79.3688 24.2872 79.3688 25.0974C79.3815 25.5278 79.1663 25.9329 78.7865 26.1355C79.3308 26.2874 79.698 26.7938 79.6853 27.3635C79.6853 28.2244 79.0776 28.7687 78.0648 28.7687H76.5583V23.7934H77.8496V23.7808ZM77.0394 24.2239V25.9836H77.8876C78.4953 25.9836 78.9004 25.6291 78.9004 25.11C78.9004 24.553 78.5079 24.2239 77.8496 24.2239H77.0394ZM77.0394 26.4267V28.313H78.0775C78.7865 28.313 79.2169 27.9459 79.2169 27.3508C79.2169 26.7811 78.7865 26.4267 78.0775 26.4267H77.0394Z" fill="#191919"/>
<path d="M81.9894 25.11C82.4705 25.0973 82.9389 25.2872 83.268 25.6417C83.9263 26.4139 83.9263 27.5407 83.268 28.3129C82.9389 28.6674 82.4705 28.8573 81.9894 28.8446C81.5083 28.8573 81.0399 28.6674 80.6981 28.3129C80.0398 27.5407 80.0398 26.4139 80.6981 25.6417C81.0272 25.2872 81.4957 25.0973 81.9894 25.11ZM81.0272 25.9455C80.774 26.2367 80.6474 26.6038 80.6601 26.971C80.6474 27.3508 80.774 27.7179 81.0272 28.0091C81.2804 28.2749 81.6223 28.4268 81.9894 28.4142C82.3439 28.4268 82.6983 28.2749 82.9389 28.0091C83.1794 27.7179 83.3187 27.3508 83.306 26.971C83.3187 26.5912 83.1921 26.224 82.9389 25.9455C82.6983 25.667 82.3565 25.5151 81.9894 25.5277C81.6223 25.5151 81.2678 25.667 81.0272 25.9455Z" fill="#191919"/>
<path d="M87.0407 25.186V28.7561H86.6229L86.6102 28.2244C86.4203 28.6168 86.0279 28.8574 85.5974 28.8321C84.8505 28.8321 84.4454 28.3004 84.4454 27.4901V25.186H84.8885V27.4521C84.8885 28.0725 85.1796 28.4143 85.6734 28.4143C86.2178 28.4143 86.5849 27.9459 86.5849 27.2116V25.186H87.0407Z" fill="#191919"/>
<path d="M90.6487 26.4518V28.7559H90.2056V26.5024C90.2056 25.8821 89.9018 25.5529 89.4207 25.5529C88.8764 25.5529 88.4839 26.034 88.4839 26.781V28.7685H88.0408V25.1858H88.4586L88.4839 25.7302C88.6738 25.3377 89.0789 25.0972 89.5093 25.1099C90.231 25.1099 90.6487 25.6542 90.6487 26.4518Z" fill="#191919"/>
<path d="M94.5986 26.2241H94.1302C93.9783 25.7937 93.5478 25.5405 93.0414 25.5405C92.6996 25.5279 92.3705 25.6924 92.1552 25.9583C91.6868 26.566 91.6868 27.4142 92.1552 28.0218C92.3831 28.2877 92.7123 28.4396 93.0541 28.4396C93.5605 28.4396 93.9909 28.1738 94.1302 27.756H94.5986C94.396 28.4649 93.8137 28.87 93.0414 28.87C92.573 28.8827 92.1299 28.6928 91.8134 28.3383C91.1804 27.5661 91.1804 26.452 91.8134 25.6671C92.1173 25.3126 92.573 25.1227 93.0414 25.1354C93.8137 25.1101 94.4087 25.5152 94.5986 26.2241Z" fill="#191919"/>
<path d="M98.3586 26.895V27.1482H95.5101C95.5481 27.9205 96.0545 28.4269 96.7508 28.4269C97.3078 28.4269 97.675 28.199 97.8522 27.7559H98.3206C98.1054 28.4522 97.5484 28.8447 96.7508 28.8447C96.295 28.8573 95.8519 28.6801 95.5354 28.3383C95.2189 27.9965 95.067 27.5534 95.067 26.9963C95.0417 26.5026 95.2063 26.0215 95.5228 25.6544C95.8266 25.2999 96.2697 25.11 96.7381 25.1227C97.7003 25.11 98.3586 25.7557 98.3586 26.895ZM95.5228 26.7431H97.9028C97.9028 25.9962 97.4471 25.5278 96.7381 25.5278C96.0545 25.5278 95.5734 26.0342 95.5228 26.7431Z" fill="#191919"/>
<path d="M102.828 23.7808L101.055 26.2115L102.916 28.7561H102.359L100.751 26.5786L99.1435 28.7561H98.5738L100.435 26.2115L98.6624 23.7808H99.2321L100.739 25.8317L102.245 23.7808H102.828Z" fill="#191919"/>
<path d="M63.3541 10.7916C63.4554 10.627 63.5693 10.4625 63.7086 10.3232C64.0884 9.93076 64.5948 9.70288 65.1391 9.70288C65.5949 9.69022 66.038 9.84214 66.3671 10.146C66.6836 10.4372 66.8609 10.8549 66.8482 11.2854C66.8609 11.6525 66.7216 12.007 66.4684 12.2602C66.2152 12.5134 65.8861 12.6526 65.5316 12.64C65.1012 12.64 64.7087 12.4374 64.4428 11.931C64.2656 11.5892 64.1263 10.9182 63.8478 10.9182C63.6326 10.9182 63.544 10.9815 63.3668 11.1208" fill="#191919"/>
<path d="M56.9482 17.2989C56.4545 17.8559 55.7455 18.1598 54.9986 18.1471C54.2263 18.1724 53.4921 17.8053 53.049 17.1596C52.5806 16.5013 52.3527 15.3366 52.3527 14.1466C52.3527 12.8933 52.6185 11.6526 52.9097 11.0449C53.2009 10.4373 53.5554 10.1334 53.9858 10.1334C54.3783 10.1334 54.6694 10.4373 54.8973 11.0576C55.1125 11.6779 55.2391 12.5008 55.2645 13.5263H52.9097V14.0327H58.3408C58.3535 13.2478 58.1762 12.4755 57.8091 11.7792C57.4673 11.1336 56.9482 10.6145 56.3152 10.26C55.6189 9.89289 54.834 9.703 54.0491 9.72832C53.1503 9.71566 52.2767 9.90555 51.4665 10.3107C50.7449 10.6778 50.1372 11.2475 49.7321 11.9564C49.3143 12.7034 49.0991 13.5516 49.1118 14.4125C49.0991 15.2733 49.3017 16.1215 49.6941 16.8811C50.0739 17.5774 50.6563 18.1598 51.3652 18.5396C52.1375 18.9447 52.9983 19.1472 53.8719 19.1346C55.2138 19.1346 56.2646 18.7801 57.0495 18.0712C57.404 17.7547 57.6825 17.3622 57.8724 16.9318L57.4293 16.6153C57.3154 16.8432 57.1508 17.0837 56.9482 17.2989Z" fill="#191919"/>
<path d="M11.3854 8.38627C11.2968 8.17106 11.2209 7.94318 11.1576 7.7153C11.1323 7.62668 11.1196 7.53806 11.1196 7.44944C11.1069 7.25955 11.1829 7.08231 11.3095 6.94305C11.4487 6.80379 11.6513 6.72783 11.8412 6.72783V6.31006H6.65067V6.71517C6.86588 6.72783 7.06844 6.81645 7.22036 6.98103C7.41026 7.17093 7.56217 7.39881 7.65079 7.652L12.3349 18.9319H12.7147L14.2339 15.2606L11.3854 8.38627Z" fill="#191919"/>
<path d="M0.75116 6.31079V6.71591C0.966377 6.72857 1.16893 6.81718 1.32085 6.98176C1.51075 7.17166 1.66267 7.39954 1.75129 7.65273L6.43543 18.9327H6.81523L8.33441 15.2613L4.62507 6.31079H0.75116Z" fill="#191919"/>
<path d="M62.9363 17.7674C62.9363 18.0206 62.9996 18.1852 63.1389 18.2738C63.4174 18.4511 63.7972 18.489 64.0124 18.5144V18.8815H59.1131V18.5017C59.303 18.489 59.4802 18.4257 59.6321 18.3118C59.7587 18.2105 59.822 18.0206 59.822 17.7674V12.387C59.822 11.9819 59.5815 11.792 59.1131 11.792V11.4628L62.6198 9.6145H62.9363V17.7674Z" fill="#191919"/>
<path d="M31.1854 17.7799C31.1854 18.0331 31.2234 18.223 31.3373 18.3243C31.4893 18.4382 31.6665 18.5015 31.8564 18.5142V18.8813H27.3622V18.5142C27.552 18.5015 27.7293 18.4382 27.8812 18.3243C28.0078 18.223 28.0711 18.0331 28.0711 17.7799V12.3868C28.0711 11.9817 27.8306 11.7918 27.3622 11.7918V11.4626L30.8563 9.62695H31.1728L31.1854 17.7799Z" fill="#191919"/>
<path d="M82.3059 18.3116C82.4578 18.4255 82.635 18.4888 82.8249 18.5015V18.8686H78.3307V18.5015C78.5206 18.4888 78.6978 18.4255 78.8497 18.3116C78.9763 18.2103 79.0396 18.0204 79.0396 17.7672V12.4754C79.0396 12.0703 78.7991 11.8804 78.3307 11.8804V11.5513L81.7995 9.71558H82.116V17.7799C82.116 18.0331 82.1793 18.2103 82.3059 18.3116Z" fill="#191919"/>
<path d="M70.7348 17.7672V6.31006H70.4183L66.9495 8.14574V8.47489C67.4179 8.47489 67.6584 8.67745 67.6584 9.0699V17.7672C67.6584 18.0204 67.5951 18.2103 67.4685 18.3116C67.3166 18.4255 67.1394 18.4888 66.9495 18.5015V18.8686H71.4437V18.5015C71.2538 18.4888 71.0766 18.4255 70.9247 18.3116C70.7981 18.2103 70.7348 18.0331 70.7348 17.7672Z" fill="#191919"/>
<path d="M77.2293 18.2482C77.0647 18.0836 76.9254 17.8937 76.8115 17.6912L73.6719 12.4373L75.0138 11.3106C75.3683 11.0321 75.7481 10.7916 76.1532 10.6017C76.495 10.4371 76.8748 10.3232 77.2546 10.2978V9.94336H72.8237V10.2978C73.8111 10.3738 73.9884 10.6523 73.9884 11.0574C73.9884 11.3486 73.7478 11.7157 73.2541 12.1335L71.1399 13.9059L73.1908 17.5393C73.2921 17.6912 73.3427 17.8684 73.3554 18.0457C73.3554 18.3368 73.1401 18.4888 72.7224 18.5014V18.8685H77.6724V18.5014C77.4951 18.4761 77.3432 18.3875 77.2293 18.2482Z" fill="#191919"/>
<path d="M22.7287 16.9443V18.8812H26.5013V18.5141C26.3114 18.5014 26.1342 18.4381 25.9823 18.3242C25.8557 18.2229 25.7924 18.033 25.7924 17.7798V9.94336H21.8172V10.3105C22.1337 10.3358 22.3615 10.4118 22.5008 10.5257C22.6401 10.6397 22.716 10.8802 22.716 11.222V14.7288L22.7287 16.9443Z" fill="#191919"/>
<path d="M48.0357 18.3116C47.9091 18.2103 47.8458 18.0204 47.8458 17.7672V6.31006H47.5293L44.0605 8.14574V8.47489C44.5289 8.47489 44.7694 8.67745 44.7694 9.0699V18.8686H48.5547V18.5015C48.3648 18.5015 48.1749 18.4382 48.0357 18.3116Z" fill="#191919"/>
<path d="M15.0062 9.36114C15.9151 9.36114 16.6519 8.6243 16.6519 7.71536C16.6519 6.80642 15.9151 6.06958 15.0062 6.06958C14.0972 6.06958 13.3604 6.80642 13.3604 7.71536C13.3604 8.6243 14.0972 9.36114 15.0062 9.36114Z" fill="#191919"/>
<path d="M80.5715 9.36114C81.4804 9.36114 82.2173 8.6243 82.2173 7.71536C82.2173 6.80642 81.4804 6.06958 80.5715 6.06958C79.6626 6.06958 78.9257 6.80642 78.9257 7.71536C78.9257 8.6243 79.6626 9.36114 80.5715 9.36114Z" fill="#191919"/>
<path d="M22.3109 17.1088C22.3109 17.1088 21.8298 17.6405 21.1588 17.6405C20.8423 17.6532 20.5511 17.4886 20.3992 17.2101C20.222 16.9189 20.1334 16.7164 20.1334 16.1847V9.94336H16.3481V10.3105C16.538 10.3232 16.7152 10.3865 16.8671 10.5004C16.9937 10.6017 17.057 10.7916 17.057 11.0448V16.0454C17.057 17.0076 17.2976 17.7545 17.7913 18.2862C18.285 18.8179 18.9813 19.0838 19.8675 19.0838C21.2601 19.0838 22.1463 17.8304 22.3109 17.6152V17.1088Z" fill="#191919"/>
<path d="M31.6032 11.2221C31.7425 10.8929 32.1602 9.70288 34.1099 9.70288C34.9961 9.70288 35.6923 9.96874 36.1861 10.5005C36.6798 11.0322 36.9204 11.7791 36.9204 12.7412V17.7672C36.9204 18.0204 36.9836 18.2103 37.1102 18.3116C37.2622 18.4255 37.4394 18.4888 37.6293 18.5015V18.8686H33.1477V18.5015C33.3376 18.4888 33.5148 18.4255 33.6668 18.3116C33.7934 18.2103 33.8567 18.0204 33.8567 17.7672V12.6146C33.8567 12.0829 33.768 11.6778 33.6035 11.3866C33.4515 11.1081 33.1604 10.9435 32.8439 10.9562C32.3375 10.9562 31.9324 11.336 31.6159 11.7031L31.6032 11.2221Z" fill="#191919"/>
<path d="M87.2939 17.7799C87.2939 18.0331 87.3319 18.223 87.4458 18.3243C87.5977 18.4382 87.775 18.5142 87.9775 18.5142V18.8813H83.4833V18.5142C83.6732 18.5015 83.8504 18.4382 84.0023 18.3243C84.1289 18.223 84.1922 18.0331 84.1922 17.7799V12.3868C84.1922 11.9817 83.9517 11.7918 83.4833 11.7918V11.4626L86.9774 9.62695H87.2939V17.7799Z" fill="#191919"/>
<path d="M104.131 18.3116C104.005 18.2103 103.942 18.0204 103.942 17.7672V6.31006H103.625L100.156 8.14574V8.47489C100.625 8.47489 100.865 8.67745 100.865 9.0699V18.8686H104.651V18.5015C104.461 18.5015 104.283 18.4382 104.131 18.3116Z" fill="#191919"/>
<path d="M97.9534 16.8938C97.6749 16.2481 97.523 15.4253 97.523 14.4125C97.523 13.2984 97.6876 12.3996 98.0041 11.7159C98.3206 11.0323 98.7637 10.6905 99.2954 10.6905C99.7132 10.7031 100.118 10.8297 100.447 11.0829V10.5765C100.296 10.3866 100.118 10.2221 99.9157 10.0828C99.4979 9.81695 99.0169 9.69035 98.5358 9.70301C97.7509 9.69035 96.9786 9.89291 96.295 10.298C95.6493 10.6905 95.1303 11.2728 94.7885 11.9565C94.4213 12.7161 94.2314 13.5643 94.2568 14.4125C94.2441 15.248 94.4087 16.0836 94.7378 16.8432V16.8558V16.8685C95.029 17.5268 95.5101 18.0965 96.1051 18.5016C96.6621 18.9067 97.3331 19.1093 98.0167 19.0966C99.6245 19.0966 100.473 17.6281 100.473 17.6281V17.1217C100.169 17.3875 99.5866 17.818 99.1941 17.818C98.6117 17.8053 98.2699 17.5395 97.9534 16.8938Z" fill="#191919"/>
<path d="M87.699 11.2221C87.8382 10.8929 88.256 9.70288 90.2056 9.70288C91.0918 9.70288 91.7881 9.96874 92.2818 10.5005C92.7756 11.0322 93.0161 11.7791 93.0161 12.7412V17.7672C93.0161 18.0204 93.0794 18.2103 93.206 18.3116C93.3579 18.4255 93.5352 18.4888 93.7251 18.5015V18.8686H89.2435V18.5015C89.4334 18.4888 89.6106 18.4255 89.7625 18.3116C89.8891 18.2103 89.9524 18.0204 89.9524 17.7672V12.6146C89.9524 12.0829 89.8638 11.6778 89.6992 11.3866C89.5473 11.1081 89.2561 10.9435 88.9396 10.9562C88.4332 10.9562 88.0281 11.336 87.7116 11.7031L87.699 11.2221Z" fill="#191919"/>
<path d="M41.8577 16.8938C41.5792 16.2481 41.4273 15.4253 41.4273 14.4125C41.4273 13.2984 41.5918 12.3996 41.9083 11.7159C42.2248 11.0323 42.6679 10.6905 43.1996 10.6905C43.6174 10.6905 44.0225 10.8297 44.3517 11.0829V10.5765C44.1998 10.3866 44.0225 10.2221 43.82 10.0828C43.4022 9.81695 42.9211 9.69035 42.4401 9.70301C41.6551 9.69035 40.8829 9.89291 40.2119 10.298C39.5663 10.6905 39.0346 11.2728 38.7054 11.9565C38.3383 12.7161 38.1484 13.5643 38.1737 14.4125C38.161 15.248 38.3256 16.0836 38.6548 16.8432C38.6548 16.8432 38.6548 16.8432 38.6548 16.8558C38.6548 16.8685 38.6548 16.8558 38.6548 16.8685C38.9459 17.5268 39.427 18.0965 40.022 18.5016C40.5791 18.9067 41.25 19.1093 41.9337 19.0966C43.5288 19.0966 44.3897 17.6281 44.3897 17.6281V17.1217C44.0858 17.3875 43.5288 17.818 43.073 17.818C42.4654 17.8053 42.1742 17.5395 41.8577 16.8938Z" fill="#191919"/>
</g>
<defs>
<clipPath id="clip0">
<rect width="104.048" height="29.9657" fill="white" transform="translate(0.899353 0.297607)"/>
</clipPath>
</defs>
</svg>
