<svg width="100" height="12" viewBox="0 0 100 12" fill="none" xmlns="http://www.w3.org/2000/svg">
<path d="M8.03366 1.13665V2.52672C8.03366 2.61829 7.97539 2.67655 7.88383 2.67655H1.90732V5.5233H6.83503C6.92659 5.5233 6.98486 5.58157 6.98486 5.67313V7.06321C6.98486 7.15477 6.92659 7.21304 6.83503 7.21304H1.90732V11.4166C1.90732 11.5081 1.84905 11.5664 1.75749 11.5664H0.259204C0.167642 11.5664 0.109375 11.5081 0.109375 11.4166V1.13665C0.109375 1.04508 0.167642 0.986816 0.259204 0.986816H7.88383C7.97539 0.986816 8.03366 1.04508 8.03366 1.13665Z" fill="#677B8C"/>
<path d="M20.2281 11.5743H18.5799C18.4884 11.5743 18.4301 11.5326 18.4051 11.4411C18.1887 10.5754 17.9224 9.65978 17.6227 8.73583H12.5618C12.2622 9.65978 11.9958 10.5754 11.7794 11.4411C11.7544 11.5326 11.6961 11.5743 11.6046 11.5743H10.0147C9.90651 11.5743 9.84824 11.516 9.88154 11.4078C10.8305 8.02831 12.2871 4.30756 13.7521 1.1778C13.8187 1.03629 13.9019 0.978027 14.0435 0.978027H16.191C16.3325 0.978027 16.4157 1.02797 16.4823 1.1778C17.964 4.29923 19.3957 8.02831 20.3529 11.3995C20.3945 11.5077 20.3279 11.5743 20.2281 11.5743ZM17.0567 7.09604C16.5073 5.56446 15.8913 4.0412 15.2671 2.65112H14.9091C14.2848 4.0412 13.6606 5.57278 13.1112 7.09604H17.0567Z" fill="#677B8C"/>
<path d="M22.9333 6.36358C22.9333 3.084 25.0975 0.786621 28.1856 0.786621H28.4104C30.3498 0.786621 31.8398 1.76883 32.6389 3.19221C32.6888 3.28377 32.6805 3.35868 32.5889 3.4003L31.2571 4.05788C31.1656 4.0995 31.049 4.0995 30.9908 3.99129C30.4331 3.02573 29.5924 2.50965 28.3521 2.50965H28.1274C26.1879 2.50965 24.8478 4.04956 24.8478 6.28867C24.8478 8.5361 26.1629 10.0427 28.1274 10.0427H28.3521C29.6257 10.0427 30.3665 9.60988 30.9325 8.95229C31.0074 8.86906 31.0907 8.85241 31.1822 8.90235L32.5473 9.56826C32.5973 9.60155 32.6222 9.63485 32.6222 9.67647C32.6222 9.71809 32.6056 9.74306 32.5806 9.793C31.7399 11.0166 30.225 11.7741 28.3854 11.7741H28.1607C25.0143 11.7657 22.9333 9.60988 22.9333 6.36358Z" fill="#677B8C"/>
<path d="M44.6834 10.026V11.4161C44.6834 11.5076 44.6252 11.5659 44.5336 11.5659H36.5927C36.5011 11.5659 36.4428 11.5076 36.4428 11.4161V1.13616C36.4428 1.04459 36.5011 0.986328 36.5927 0.986328H44.3921C44.4837 0.986328 44.5419 1.04459 44.5419 1.13616V2.52624C44.5419 2.6178 44.4837 2.67607 44.3921 2.67607H38.2325V5.43125H43.2351C43.3266 5.43125 43.3849 5.48952 43.3849 5.58108V6.95451C43.3849 7.04607 43.3266 7.10434 43.2351 7.10434H38.2325V9.87617H44.5253C44.6168 9.87617 44.6834 9.93444 44.6834 10.026Z" fill="#677B8C"/>
<path d="M58.3512 8.66922C58.3512 10.5254 56.9278 11.5742 54.4223 11.5742H49.2199C49.1283 11.5742 49.0701 11.516 49.0701 11.4244V1.13616C49.0701 1.04459 49.1283 0.986328 49.2199 0.986328H53.9645C56.4034 0.986328 57.7352 1.95189 57.7352 3.72487C57.7352 4.8902 57.1442 5.65599 55.9539 6.0056C57.627 6.36352 58.3512 7.36238 58.3512 8.66922ZM53.9229 2.63445H50.868V5.48119H53.9229C55.288 5.48119 55.9206 5.03171 55.9206 4.05782C55.9206 3.08393 55.288 2.63445 53.9229 2.63445ZM56.5116 8.51107C56.5116 7.52886 55.8623 7.07937 54.4306 7.07937H50.868V9.92612H54.4306C55.879 9.91779 56.5116 9.5016 56.5116 8.51107Z" fill="#677B8C"/>
<path d="M61.5225 6.28035C61.5225 3.09232 63.6367 0.786621 66.9663 0.786621H67.191C70.5206 0.786621 72.6348 3.084 72.6348 6.28035C72.6348 9.46837 70.5206 11.7741 67.191 11.7741H66.9663C63.6367 11.7657 61.5225 9.46837 61.5225 6.28035ZM67.191 10.0427C69.3635 10.0427 70.7286 8.55275 70.7286 6.28035C70.7286 4.00794 69.3635 2.51798 67.191 2.51798H66.9663C64.7938 2.51798 63.4286 4.00794 63.4286 6.28035C63.4286 8.55275 64.7938 10.0427 66.9663 10.0427H67.191Z" fill="#677B8C"/>
<path d="M75.7063 6.28035C75.7063 3.09232 77.8205 0.786621 81.1501 0.786621H81.3748C84.7044 0.786621 86.8186 3.084 86.8186 6.28035C86.8186 9.46837 84.7044 11.7741 81.3748 11.7741H81.1501C77.8289 11.7657 75.7063 9.46837 75.7063 6.28035ZM81.3831 10.0427C83.5557 10.0427 84.9208 8.55275 84.9208 6.28035C84.9208 4.00794 83.5557 2.51798 81.3831 2.51798H81.1584C78.9859 2.51798 77.6208 4.00794 77.6208 6.28035C77.6208 8.55275 78.9859 10.0427 81.1584 10.0427H81.3831Z" fill="#677B8C"/>
<path d="M99.8704 11.5742H97.9226C97.7977 11.5742 97.7395 11.5409 97.6562 11.4494C96.2911 9.83456 94.668 8.23638 93.2945 7.0544H92.4205V11.4244C92.4205 11.516 92.3623 11.5742 92.2707 11.5742H90.7724C90.6808 11.5742 90.6226 11.516 90.6226 11.4244V1.13616C90.6226 1.04459 90.6808 0.986328 90.7724 0.986328H92.2707C92.3623 0.986328 92.4205 1.04459 92.4205 1.13616V5.31472H93.3112C94.7845 3.98291 96.1496 2.54288 97.2567 1.10286C97.3316 1.00298 97.3899 0.986328 97.4814 0.986328H99.3293C99.4209 0.986328 99.4625 1.02795 99.4625 1.09454C99.4625 1.12783 99.4458 1.16113 99.4125 1.21107C97.7894 3.21711 96.1746 4.85691 94.6846 6.13045C96.5575 7.7203 98.3388 9.48495 99.9536 11.3911C100.037 11.4827 99.9869 11.5742 99.8704 11.5742Z" fill="#677B8C"/>
</svg>
