<svg width="82" height="18" viewBox="0 0 82 18" fill="none" xmlns="http://www.w3.org/2000/svg">
<g clip-path="url(#clip0)">
<path d="M7.09688 9.39742C7.09688 8.30433 7.99966 7.40737 9.09988 7.40737C10.2001 7.40737 11.1029 8.30433 11.1029 9.39742C11.1029 10.4906 10.2001 11.3875 9.09988 11.3875C7.9714 11.3875 7.09688 10.5186 7.09688 9.39742ZM9.09988 1.07275C5.17854 1.07275 1.87786 3.73554 0.946899 7.35131V7.4354C0.946899 7.6596 1.11617 7.82778 1.34185 7.82778H4.72717C4.89643 7.82778 5.03749 7.74369 5.09391 7.60356C5.79918 6.08999 7.32257 5.05291 9.09988 5.05291C11.526 5.05291 13.5008 7.01496 13.5008 9.42547C13.5008 11.836 11.526 13.798 9.09988 13.798C7.32257 13.798 5.79918 12.761 5.09391 11.2474C5.03749 11.1073 4.89643 11.0232 4.72717 11.0232H1.34185C1.11617 10.9951 0.946899 11.1633 0.946899 11.3875V11.4716C1.87786 15.0874 5.17854 17.7502 9.09988 17.7502C13.7264 17.7502 17.4785 14.0223 17.4785 9.42547C17.4785 4.80065 13.7264 1.07275 9.09988 1.07275ZM31.0197 11.3595H29.8913C29.8067 11.3595 29.7503 11.3875 29.6938 11.4436C29.045 12.4246 27.9165 13.0693 26.6471 13.0693C24.5877 13.0693 22.9515 11.4436 22.9515 9.39742C22.9515 7.35131 24.6159 5.72562 26.6471 5.72562C27.9165 5.72562 29.045 6.37029 29.6938 7.35131C29.7503 7.40737 29.8067 7.4354 29.8913 7.4354H31.0197C31.1608 7.4354 31.2737 7.32329 31.2737 7.18314C31.2737 7.15511 31.2737 7.09905 31.2455 7.07102C30.3991 5.38926 28.6501 4.24007 26.6471 4.24007C23.7978 4.24007 21.4845 6.53846 21.4845 9.36944C21.4845 12.2565 23.7978 14.5268 26.6471 14.5268C28.6501 14.5268 30.3991 13.3776 31.2455 11.6959C31.2737 11.6678 31.2737 11.6398 31.2737 11.5837C31.2737 11.4716 31.1608 11.3595 31.0197 11.3595ZM34.4615 2.55831C34.4615 3.09086 34.0101 3.53933 33.4741 3.53933C32.9381 3.53933 32.4867 3.09086 32.4867 2.55831C32.4867 2.02575 32.9381 1.57728 33.4741 1.57728C34.0384 1.60531 34.4615 2.02575 34.4615 2.55831ZM34.2358 14.0503V4.52036H32.7688V14.0503C32.7688 14.1904 32.8817 14.3026 33.0227 14.3026H34.0101C34.123 14.3026 34.2358 14.1904 34.2358 14.0503ZM40.6115 4.29612C39.1163 4.35218 37.9315 5.08094 37.1697 6.14606V4.77262C37.1697 4.63247 37.0569 4.52036 36.9159 4.52036H35.9285C35.7874 4.52036 35.6746 4.63247 35.6746 4.77262V14.0503C35.6746 14.1904 35.7874 14.3026 35.9285 14.3026H36.9159C37.0569 14.3026 37.1697 14.1904 37.1697 14.0503V9.39742C37.1697 7.46343 38.6931 5.86576 40.6115 5.75364C40.7525 5.75364 40.8654 5.64153 40.8654 5.50138V4.52036C40.8654 4.40824 40.7525 4.29612 40.6115 4.29612ZM50.4289 11.3595H49.3005C49.2158 11.3595 49.1594 11.3875 49.103 11.4436C48.4541 12.4246 47.3257 13.0693 46.0562 13.0693C44.025 13.0693 42.3606 11.4156 42.3606 9.39742C42.3606 7.37934 44.025 5.72562 46.0562 5.72562C47.3257 5.72562 48.4541 6.37029 49.103 7.35131C49.1594 7.40737 49.2158 7.4354 49.3005 7.4354H50.4289C50.5699 7.4354 50.6828 7.32329 50.6828 7.18314C50.6828 7.15511 50.6828 7.09905 50.6546 7.07102C49.8083 5.38926 48.0592 4.24007 46.0562 4.24007C43.2069 4.24007 40.8936 6.53846 40.8936 9.36944C40.8936 12.2003 43.2069 14.4988 46.0562 14.4988C48.0592 14.4988 49.8083 13.3495 50.6546 11.6678C50.6828 11.6398 50.6828 11.6118 50.6828 11.5557C50.6546 11.4716 50.5699 11.3595 50.4289 11.3595ZM53.3628 1.35305H52.3755C52.2344 1.35305 52.1216 1.46516 52.1216 1.60531V14.0784C52.1216 14.2185 52.2344 14.3306 52.3755 14.3306H53.3628C53.5039 14.3306 53.6167 14.2185 53.6167 14.0784V1.60531C53.6167 1.46516 53.5039 1.35305 53.3628 1.35305ZM60.2463 4.26809C57.397 4.26809 55.0837 6.5665 55.0837 9.39742C55.0837 12.2284 57.397 14.5268 60.2463 14.5268C62.2492 14.5268 63.9984 13.3776 64.8446 11.6959C64.8729 11.6678 64.8729 11.6398 64.8729 11.5837C64.8729 11.4436 64.7601 11.3315 64.619 11.3315H63.4906C63.4059 11.3315 63.3495 11.3595 63.2931 11.4436C62.616 12.4246 61.5158 13.0412 60.2463 13.0412C58.3844 13.0412 56.8328 11.6678 56.5789 9.87397H65.155C65.2961 9.87397 65.3807 9.76183 65.4089 9.64969C65.4089 9.5656 65.4089 9.48151 65.4089 9.39742C65.4089 6.5665 63.0956 4.26809 60.2463 4.26809ZM56.6917 8.44446C57.1149 6.90285 58.5536 5.75364 60.2463 5.75364C61.9389 5.75364 63.3777 6.90285 63.8009 8.44446H56.6917ZM79.7116 1.10078C78.8936 1.10078 78.2446 1.74546 78.2446 2.55831C78.2446 3.37115 78.8936 4.01583 79.7116 4.01583C80.5296 4.01583 81.1787 3.37115 81.1787 2.55831C81.1787 1.77349 80.5296 1.10078 79.7116 1.10078ZM80.9251 4.52036V14.0503C80.9251 14.1904 80.8122 14.3026 80.6709 14.3026H78.6962C78.5549 14.3026 78.4426 14.1904 78.4426 14.0503V4.52036H80.9251ZM72.0667 14.5268C74.4647 14.5268 76.4956 12.8731 77.0601 10.6588C77.0601 10.6307 77.0601 10.6307 77.0601 10.6027C77.0601 10.4626 76.9472 10.3505 76.8059 10.3505H74.7182C74.606 10.3505 74.5208 10.4065 74.4931 10.4906C74.0699 11.4156 73.1389 12.0602 72.0383 12.0602C70.5435 12.0602 69.3302 10.855 69.3302 9.36944C69.3302 7.88388 70.5435 6.67861 72.0383 6.67861C73.1389 6.67861 74.0699 7.32329 74.4931 8.24823C74.5208 8.33231 74.606 8.38842 74.7182 8.38842H76.8059C76.9472 8.38842 77.0601 8.27628 77.0601 8.13615C77.0601 8.1081 77.0601 8.1081 77.0601 8.08005C76.4956 5.86576 74.4647 4.21203 72.0667 4.21203C69.2174 4.21203 66.9041 6.51043 66.9041 9.34138C66.9041 12.2565 69.2174 14.5268 72.0667 14.5268Z" fill="black"/>
</g>
<defs>
<clipPath id="clip0">
<rect width="80.3488" height="17.3166" fill="white" transform="translate(0.946899 0.62207)"/>
</clipPath>
</defs>
</svg>
