<svg width="105" height="20" viewBox="0 0 105 20" fill="none" xmlns="http://www.w3.org/2000/svg">
<path d="M33.6066 13.3982C32.0995 13.3982 31.2161 12.2203 31.2161 10.8865C31.2161 9.34482 32.2208 8.32281 33.6066 8.32281C34.3341 8.32281 34.8191 8.61728 35.2695 8.89444L35.997 7.59527C35.4774 7.26614 34.6113 6.86773 33.6932 6.86773C31.3027 6.86773 29.5878 8.56532 29.5878 10.8865C29.5878 13.1904 31.3373 14.9053 33.6932 14.9053C34.6979 14.9053 35.4254 14.4896 35.997 14.1431L35.2695 12.8439C34.8191 13.1557 34.1436 13.3982 33.6066 13.3982ZM38.7167 3.31665H40.2583V14.6974H38.7167V3.31665ZM49.1447 7.11024L48.9715 7.76849C48.5557 7.31811 47.6723 6.86773 46.7369 6.86773C44.8314 6.86773 43.0819 8.37477 43.0819 10.8345C43.0819 13.3809 44.8314 14.9226 46.7369 14.9226C47.6723 14.9226 48.5211 14.4722 48.9715 14.0219L49.1447 14.7147H50.4439V7.16221H49.1447V7.11024ZM49.0061 10.9385C49.0061 12.6707 47.9495 13.4502 46.9448 13.4502C45.9227 13.4502 44.7448 12.7573 44.7448 10.8519C44.7448 9.6393 45.3858 8.34012 46.8235 8.34012C47.9148 8.34012 49.0061 9.22356 49.0061 10.8519V10.9385ZM55.9524 11.5448C57.009 11.8219 57.4594 12.0298 57.4594 12.5668C57.4594 12.9825 57.0956 13.4156 56.2469 13.4156C55.4673 13.4156 54.8264 13.1384 54.2201 12.8093L53.5273 14.1085C54.0642 14.4376 55.2595 14.888 56.2469 14.888C57.9444 14.888 58.9318 13.7447 58.9318 12.5841C58.9318 10.592 56.9744 10.2802 56.4547 10.107C55.3634 9.81253 55.0863 9.58733 55.0863 9.13695C55.0863 8.65193 55.502 8.32281 56.2988 8.32281C56.9917 8.32281 57.5114 8.53067 57.9964 8.77318L58.7239 7.47401C58.0311 7.17953 57.2169 6.86773 56.2988 6.86773C54.6359 6.86773 53.6312 8.04565 53.6312 9.13695C53.6312 10.8865 55.1036 11.3369 55.9524 11.5448ZM64.2151 11.5448C65.2718 11.8219 65.7222 12.0298 65.7222 12.5668C65.7222 12.9825 65.3584 13.4156 64.5096 13.4156C63.7301 13.4156 63.0892 13.1384 62.4829 12.8093L61.79 14.1085C62.327 14.4376 63.5222 14.888 64.5096 14.888C66.2072 14.888 67.1946 13.7447 67.1946 12.5841C67.1946 10.592 65.2371 10.2802 64.7175 10.107C63.6262 9.81253 63.349 9.58733 63.349 9.13695C63.349 8.65193 63.7647 8.32281 64.5616 8.32281C65.2545 8.32281 65.7741 8.53067 66.2592 8.77318L66.9867 7.47401C66.2938 7.17953 65.4797 6.86773 64.5616 6.86773C62.8986 6.86773 61.8939 8.04565 61.8939 9.13695C61.8766 10.8865 63.3663 11.3369 64.2151 11.5448ZM73.881 6.86773C72.9456 6.86773 72.0968 7.31811 71.6464 7.76849L71.4732 7.0756H70.174V17.8328H71.6291V14.0911L71.6811 14.0565C72.0968 14.5069 72.9456 14.8706 73.7597 14.8706C75.7172 14.8706 77.536 13.6061 77.536 10.7826C77.5706 8.25351 75.8211 6.86773 73.881 6.86773ZM73.7078 13.4502C72.7031 13.4502 71.6464 12.6707 71.6464 10.9385V10.8519C71.6464 9.18892 72.7377 8.34012 73.829 8.34012C75.2841 8.34012 75.9077 9.6393 75.9077 10.8519C75.9077 12.7573 74.7298 13.4502 73.7078 13.4502ZM86.1625 7.11024L85.9893 7.80314C85.5736 7.35276 84.6901 6.90237 83.7547 6.90237C81.8493 6.90237 80.0997 8.40942 80.0997 10.8692C80.0997 13.4156 81.8493 14.9573 83.7547 14.9573C84.6901 14.9573 85.5389 14.5069 85.9893 14.0565L86.1625 14.7494H87.4617V7.19685H86.1625V7.11024ZM86.0066 10.9385C86.0066 12.6707 84.95 13.4502 83.9453 13.4502C82.9232 13.4502 81.7453 12.7573 81.7453 10.8519C81.7453 9.6393 82.3863 8.34012 83.824 8.34012C84.9153 8.34012 86.0066 9.22356 86.0066 10.8519V10.9385ZM92.9702 11.5448C94.0269 11.8219 94.4772 12.0298 94.4772 12.5668C94.4772 12.9825 94.1135 13.4156 93.2647 13.4156C92.4852 13.4156 91.8442 13.1384 91.238 12.8093L90.5451 14.1085C91.0821 14.4376 92.2773 14.888 93.2647 14.888C94.9623 14.888 95.9496 13.7447 95.9496 12.5841C95.9496 10.592 93.9922 10.2802 93.4725 10.107C92.3812 9.81253 92.1041 9.58733 92.1041 9.13695C92.1041 8.65193 92.5198 8.32281 93.3166 8.32281C94.0095 8.32281 94.5292 8.53067 95.0142 8.77318L95.7418 7.47401C95.0489 7.17953 94.2347 6.86773 93.3166 6.86773C91.6537 6.86773 90.649 8.04565 90.649 9.13695C90.6317 10.8865 92.1214 11.3369 92.9702 11.5448ZM101.216 11.5448C102.272 11.8219 102.723 12.0298 102.723 12.5668C102.723 12.9825 102.359 13.4156 101.51 13.4156C100.731 13.4156 100.09 13.1384 99.4834 12.8093L98.7905 14.1085C99.3275 14.4376 100.523 14.888 101.51 14.888C103.208 14.888 104.195 13.7447 104.195 12.5841C104.195 10.592 102.238 10.2802 101.718 10.107C100.627 9.81253 100.35 9.58733 100.35 9.13695C100.35 8.65193 100.765 8.32281 101.562 8.32281C102.255 8.32281 102.775 8.53067 103.26 8.77318L103.987 7.47401C103.294 7.17953 102.48 6.86773 101.562 6.86773C99.8991 6.86773 98.8944 8.04565 98.8944 9.13695C98.8944 10.8865 100.384 11.3369 101.216 11.5448Z" fill="#0056FF"/>
<path d="M16.3708 0.908936H13.5819C13.0969 0.908936 12.6119 1.27271 12.5599 1.75773L12.1442 3.7498C12.0922 4.11357 11.7804 4.35608 11.4167 4.35608H8.33328C4.1586 4.40805 0.295715 7.56071 0.295715 12.0299C0.295715 16.014 3.6216 19.6517 8.40257 19.6517H11.5552C12.0403 19.6517 12.5253 19.2879 12.5772 18.8029L12.993 16.8108C13.045 16.4471 13.3568 16.2046 13.7205 16.2046H16.4401C21.0998 16.2046 24.547 12.6362 24.547 8.58273C24.4777 4.11357 20.6668 0.908936 16.3708 0.908936ZM16.3016 13.2424H13.0276C12.5426 13.2424 12.1269 13.6062 12.0056 14.0912L11.5899 16.0313C11.5379 16.3951 11.2261 16.6376 10.8623 16.6376H8.43721C5.96012 16.6376 3.29248 14.8881 3.29248 11.9779C3.29248 9.31027 5.64832 7.3182 8.43721 7.3182H12.1788C12.6639 7.3182 13.0796 6.95443 13.2009 6.46941L13.6166 4.5293C13.6686 4.16554 13.9804 3.92302 14.3441 3.92302H16.2842C18.8826 3.92302 21.429 5.74187 21.429 8.58273C21.3943 11.1811 19.1597 13.2424 16.3016 13.2424Z" fill="#0056FF"/>
</svg>
