<svg width="150" height="29" viewBox="0 0 150 29" fill="none" xmlns="http://www.w3.org/2000/svg">
<g clip-path="url(#clip0)">
<path d="M18.514 14.7386C18.514 12.1248 16.4085 10.0193 13.7948 10.0193C11.181 10.0193 9.0755 12.1248 9.0755 14.7386C9.0755 17.3523 11.181 19.4578 13.7948 19.4578C16.4085 19.4578 18.514 17.3523 18.514 14.7386ZM10.9632 14.7386C10.9632 13.2139 12.1975 11.907 13.7948 11.907C15.3921 11.907 16.6263 13.1413 16.6263 14.7386C16.6263 16.3358 15.3921 17.5701 13.7948 17.5701C12.1975 17.5701 10.9632 16.2632 10.9632 14.7386Z" fill="#1C433A"/>
<path d="M22.7977 6.67946C23.0155 6.67946 23.3059 6.60686 23.5237 6.38905C23.8867 6.02603 23.8867 5.37259 23.5237 5.00957C23.1607 4.64655 22.5072 4.64655 22.1442 5.00957C21.7812 5.37259 21.7812 6.02603 22.1442 6.38905C22.2894 6.60686 22.5072 6.67946 22.7977 6.67946Z" fill="#1C433A"/>
<path d="M24.8306 9.3658C24.9758 9.3658 25.1936 9.29319 25.3388 9.22059C25.7745 8.93017 25.9923 8.34934 25.7019 7.91371C25.4114 7.47809 24.8306 7.26028 24.395 7.55069C23.9594 7.84111 23.7415 8.42194 24.032 8.85757C24.1046 9.14798 24.4676 9.3658 24.8306 9.3658Z" fill="#1C433A"/>
<path d="M25.121 11.6892C25.2662 12.1248 25.6292 12.4152 26.0649 12.4152C26.1375 12.4152 26.2101 12.4152 26.2827 12.4152C26.7909 12.27 27.0813 11.7618 27.0087 11.1809C26.8635 10.6727 26.3553 10.3823 25.7744 10.4549C25.2662 10.6727 24.9758 11.1809 25.121 11.6892Z" fill="#1C433A"/>
<path d="M16.7716 3.33975C16.8442 3.33975 16.9168 3.33975 16.9894 3.33975C17.425 3.33975 17.788 3.04933 17.9332 2.61371C18.151 2.17808 17.788 1.59725 17.2798 1.45204C16.7716 1.30683 16.1907 1.59725 16.1181 2.17808C15.9729 2.68631 16.2633 3.26714 16.7716 3.33975Z" fill="#1C433A"/>
<path d="M19.6031 4.57426C19.7483 4.64686 19.8935 4.71946 20.1114 4.71946C20.4744 4.71946 20.7648 4.57426 20.9826 4.21124C21.273 3.77561 21.1278 3.12218 20.6196 2.90436C20.184 2.61395 19.5305 2.75916 19.3127 3.26738C19.0223 3.70301 19.1675 4.28384 19.6031 4.57426Z" fill="#1C433A"/>
<path d="M27.5169 14.7386C27.5169 14.666 27.5169 14.5934 27.5169 14.5208C27.5169 14.4482 27.5169 14.3756 27.4443 14.303C27.4443 14.2304 27.3717 14.1578 27.3717 14.1578C27.3717 14.0852 27.2991 14.0852 27.2265 14.0126C27.1539 13.94 27.1539 13.94 27.0813 13.8674C27.0087 13.8674 26.9361 13.7948 26.9361 13.7948C26.8635 13.7948 26.7909 13.7222 26.7183 13.7222C26.5731 13.7222 26.4279 13.7222 26.3553 13.7222C26.2827 13.7222 26.2101 13.7222 26.1375 13.7948C26.0649 13.7948 25.9923 13.8674 25.9923 13.8674C25.9197 13.8674 25.9197 13.94 25.847 14.0126C25.7744 14.0852 25.7744 14.0852 25.7018 14.1578C25.7018 14.2304 25.6292 14.303 25.6292 14.303C25.6292 14.3756 25.5566 14.4482 25.5566 14.5208C25.5566 14.5934 25.5566 14.666 25.5566 14.7386C25.5566 21.2004 20.2565 26.5005 13.7948 26.5005C7.26041 26.5005 2.03291 21.2004 2.03291 14.7386C2.03291 8.27686 7.33301 2.97676 13.7948 2.97676C13.8674 2.97676 13.94 2.97676 14.0126 2.97676C14.0852 2.97676 14.1578 2.97676 14.2304 2.90416C14.303 2.90416 14.3756 2.83155 14.3756 2.83155C14.4482 2.83155 14.4482 2.75895 14.5208 2.68635C14.4482 2.61374 14.5208 2.61374 14.5208 2.54114C14.5208 2.46853 14.5934 2.39593 14.5934 2.39593C14.5934 2.32332 14.666 2.25072 14.666 2.17812C14.666 2.10551 14.666 2.03291 14.666 1.9603C14.666 1.8877 14.666 1.8151 14.666 1.74249C14.666 1.66989 14.666 1.59728 14.5934 1.52468C14.5934 1.45208 14.5208 1.37947 14.5208 1.37947C14.5208 1.30687 14.4482 1.30687 14.3756 1.23426C14.303 1.16166 14.303 1.16166 14.2304 1.08906C14.1578 1.08906 14.0852 1.01645 14.0852 1.01645C14.0126 1.01645 13.94 0.943848 13.8674 0.943848C13.7948 0.943848 13.7222 0.943848 13.6496 0.943848C6.17134 1.01645 0 7.1878 0 14.7386C0 22.2894 6.17135 28.4608 13.7222 28.4608C21.273 28.4608 27.5169 22.362 27.5169 14.7386Z" fill="#1C433A"/>
<path d="M9.65637 22.0716C9.43856 22.5798 9.65637 23.1606 10.1646 23.3785C10.3098 23.4511 10.3824 23.4511 10.5276 23.4511C10.8906 23.4511 11.2537 23.2332 11.3989 22.8702C11.6167 22.362 11.3989 21.7812 10.8906 21.5634C10.455 21.3455 9.87418 21.5634 9.65637 22.0716Z" fill="#1C433A"/>
<path d="M7.84123 21.636C8.05904 21.636 8.34946 21.5634 8.56727 21.3456C8.93029 20.9826 8.93029 20.3291 8.56727 19.9661C8.20425 19.6031 7.55081 19.6031 7.18779 19.9661C6.82477 20.3291 6.82477 20.9826 7.18779 21.3456C7.333 21.5634 7.62342 21.636 7.84123 21.636Z" fill="#1C433A"/>
<path d="M5.66313 17.0619C5.1549 17.2797 4.93709 17.8605 5.1549 18.3688C5.30011 18.7318 5.66313 18.9496 6.02615 18.9496C6.17136 18.9496 6.24396 18.9496 6.38917 18.877C6.8974 18.6592 7.11521 18.0783 6.8974 17.5701C6.75219 17.0619 6.17136 16.8441 5.66313 17.0619Z" fill="#1C433A"/>
<path d="M12.8509 23.4511C12.8509 23.5237 12.9235 23.5963 12.9235 23.5963C12.9235 23.6689 12.9961 23.6689 13.0687 23.7415C13.1413 23.8141 13.1413 23.8141 13.214 23.8867C13.2866 23.8867 13.3592 23.9593 13.3592 23.9593C13.4318 23.9593 13.5044 24.0319 13.577 24.0319C13.6496 24.0319 13.7222 24.0319 13.7948 24.0319C18.9497 24.0319 23.0881 19.8209 23.0881 14.7386C23.0881 9.58374 18.8771 5.44531 13.7948 5.44531C8.6399 5.44531 4.50146 9.65635 4.50146 14.7386C4.50146 14.8112 4.50146 14.8838 4.50146 14.9564C4.50146 15.029 4.50147 15.1017 4.57407 15.1743C4.57407 15.2469 4.64667 15.3195 4.64667 15.3195C4.64667 15.3921 4.71928 15.3921 4.79188 15.4647C4.86449 15.5373 4.86449 15.5373 4.93709 15.6099C5.00969 15.6099 5.0823 15.6825 5.0823 15.6825C5.1549 15.6825 5.22751 15.7551 5.30011 15.7551C5.37271 15.7551 5.44532 15.7551 5.51792 15.7551C5.59053 15.7551 5.66313 15.7551 5.73573 15.7551C5.80834 15.7551 5.88094 15.7551 5.95355 15.6825C6.02615 15.6825 6.09875 15.6099 6.09875 15.6099C6.17136 15.6099 6.17136 15.5373 6.24396 15.4647C6.31657 15.3921 6.31657 15.3921 6.38917 15.3195C6.38917 15.2469 6.46177 15.1743 6.46177 15.1743C6.46177 15.1017 6.53438 15.029 6.53438 14.9564C6.53438 14.8838 6.53438 14.8112 6.53438 14.7386C6.53438 10.6728 9.80156 7.40562 13.8674 7.40562C17.9332 7.40562 21.2004 10.6728 21.2004 14.7386C21.2004 18.8045 17.9332 22.0716 13.8674 22.0716C13.7948 22.0716 13.7222 22.0716 13.6496 22.0716C13.577 22.0716 13.5044 22.0716 13.4318 22.1442C13.3592 22.1442 13.2866 22.2168 13.2866 22.2168C13.214 22.2168 13.214 22.2895 13.1413 22.3621C13.0687 22.4347 13.0687 22.4347 12.9961 22.5073C12.9961 22.5799 12.9235 22.6525 12.9235 22.6525C12.9235 22.7251 12.8509 22.7977 12.8509 22.8703C12.8509 22.9429 12.8509 23.0155 12.8509 23.0881C12.8509 23.1607 12.8509 23.2333 12.8509 23.3059C12.7783 23.3059 12.7783 23.3785 12.8509 23.4511Z" fill="#1C433A"/>
<path d="M46.9748 6.31641C48.9352 6.31641 50.5324 7.04245 51.9119 8.49453C53.2914 9.94661 53.9448 11.7617 53.9448 14.0124C53.9448 16.2632 53.2188 18.1509 51.9119 19.6029C50.5324 21.055 48.9352 21.7811 46.9748 21.7811C45.0145 21.7811 43.4899 20.9824 42.4008 19.3851V26.4277C42.4008 27.1538 41.82 27.7346 41.0939 27.7346C40.3679 27.7346 39.787 27.1538 39.787 26.4277V7.55067C39.787 6.96984 40.2227 6.53422 40.8035 6.53422C41.2391 6.53422 41.6748 6.82463 41.7474 7.26026L42.1104 8.42192H42.6186C43.7077 7.04245 45.1597 6.31641 46.9748 6.31641ZM46.757 19.3125C47.9913 19.3125 49.0078 18.8043 49.9516 17.8604C50.8229 16.9166 51.3311 15.6097 51.3311 14.085C51.3311 12.5604 50.8955 11.2535 49.9516 10.3096C49.0804 9.36578 47.9913 8.85755 46.757 8.85755C45.5954 8.85755 44.5789 9.29317 43.7077 10.1644C42.8364 11.0357 42.4008 12.3425 42.4008 14.085C42.4008 15.8275 42.8364 17.1344 43.7077 18.0057C44.5789 18.8769 45.5954 19.3125 46.757 19.3125Z" fill="#1C433A"/>
<path d="M57.7929 8.42192C59.1723 7.04245 60.9148 6.31641 62.8751 6.31641C64.8355 6.31641 66.5053 7.04245 67.8848 8.49453C68.9013 9.58359 69.4821 11.0357 69.6999 12.7782C69.7725 13.7946 68.9739 14.7385 67.9574 14.7385H58.3011C58.4463 16.118 58.8819 17.2796 59.7532 18.0783C60.5518 18.8769 61.6409 19.3125 62.9477 19.3125C64.3998 19.3125 65.5615 18.8043 66.3601 17.8605C66.578 17.57 66.941 17.4248 67.304 17.4248C68.3204 17.4248 68.9013 18.6591 68.2478 19.3851C67.8122 19.8208 67.3766 20.2564 66.8684 20.6194C65.7067 21.4181 64.3998 21.7811 63.0204 21.7811C61.06 21.7811 59.3175 21.055 57.9381 19.6029C56.5586 18.1509 55.8325 16.2632 55.8325 13.9398C55.6873 11.6891 56.4134 9.87401 57.7929 8.42192ZM65.6341 9.65619C64.9081 8.93015 63.9642 8.56713 62.8751 8.56713C61.7861 8.56713 60.8422 8.93015 60.0436 9.65619C59.2449 10.3822 58.7367 11.3261 58.5189 12.5604H67.0862C66.7958 11.3261 66.3601 10.3822 65.6341 9.65619Z" fill="#1C433A"/>
<path d="M78.848 21.7809C76.8877 21.7809 75.2178 21.0549 73.7658 19.5302C72.3137 18.0781 71.5876 16.1904 71.5876 14.0123C71.5876 11.8342 72.3137 10.0191 73.7658 8.49438C75.2178 7.0423 76.8877 6.24365 78.848 6.24365C80.8084 6.24365 82.4782 6.96969 83.9303 8.49438C85.3824 9.94646 86.1084 11.8342 86.1084 14.0123C86.1084 16.1904 85.3824 18.0781 83.9303 19.5302C82.4782 21.0549 80.8084 21.7809 78.848 21.7809ZM75.5083 17.7877C76.3795 18.8042 77.4686 19.3124 78.848 19.3124C80.2275 19.3124 81.3166 18.8042 82.1878 17.7877C83.0591 16.7712 83.4947 15.537 83.4947 14.0849C83.4947 12.6328 83.0591 11.3259 82.1878 10.3821C81.3166 9.36563 80.2275 8.8574 78.848 8.8574C77.4686 8.8574 76.3795 9.36563 75.5083 10.3821C74.637 11.3985 74.2014 12.6328 74.2014 14.0849C74.2014 15.537 74.637 16.7712 75.5083 17.7877Z" fill="#1C433A"/>
<path d="M95.4744 6.31641C97.4347 6.31641 99.032 7.04245 100.411 8.49453C101.791 9.94661 102.444 11.7617 102.444 14.0124C102.444 16.2632 101.791 18.0783 100.411 19.5303C99.032 20.9824 97.4347 21.7085 95.4744 21.7085C93.5141 21.7085 91.9894 20.9098 90.9003 19.3125V26.3551C90.9003 27.0812 90.3195 27.662 89.5934 27.662C88.8674 27.662 88.2866 27.0812 88.2866 26.3551V7.47807C88.2866 6.89724 88.7222 6.46161 89.303 6.46161C89.7386 6.46161 90.1743 6.75203 90.2469 7.18765L90.6099 8.34932H91.1181C92.2072 7.04245 93.6593 6.31641 95.4744 6.31641ZM95.2565 19.3125C96.4908 19.3125 97.5073 18.8043 98.4511 17.8604C99.3224 16.9166 99.8306 15.6097 99.8306 14.085C99.8306 12.5604 99.395 11.2535 98.4511 10.3096C97.5799 9.36578 96.4908 8.85755 95.2565 8.85755C94.0949 8.85755 93.0784 9.29317 92.2072 10.1644C91.3359 11.0357 90.9003 12.3425 90.9003 14.085C90.9003 15.8275 91.3359 17.1344 92.2072 18.0057C93.0784 18.8769 94.0949 19.3125 95.2565 19.3125Z" fill="#1C433A"/>
<path d="M106.075 0.14502C106.801 0.14502 107.381 0.725852 107.381 1.45189V20.3289C107.381 21.055 106.801 21.6358 106.075 21.6358C105.349 21.6358 104.768 21.055 104.768 20.3289V1.45189C104.768 0.725852 105.349 0.14502 106.075 0.14502Z" fill="#1C433A"/>
<path d="M111.665 3.84787C111.157 3.84787 110.649 3.63005 110.286 3.26703C109.923 2.90401 109.705 2.39578 109.705 1.88756C109.705 1.30672 109.923 0.871099 110.286 0.508079C110.649 0.145058 111.157 -0.0727539 111.665 -0.0727539C112.173 -0.0727539 112.609 0.145058 113.045 0.508079C113.408 0.871099 113.625 1.30672 113.625 1.88756C113.625 2.39578 113.408 2.83141 113.045 3.26703C112.609 3.70266 112.173 3.84787 111.665 3.84787ZM112.972 7.84109V20.329C112.972 21.055 112.391 21.6359 111.665 21.6359C110.939 21.6359 110.358 21.055 110.358 20.329V7.84109C110.358 7.11505 110.939 6.53422 111.665 6.53422C112.391 6.53422 112.972 7.11505 112.972 7.84109Z" fill="#1C433A"/>
<path d="M126.331 17.2798C126.331 18.6592 125.823 19.7483 124.879 20.547C123.863 21.3456 122.628 21.7812 121.104 21.7812C119.434 21.7812 118.054 21.273 116.965 20.3291C116.312 19.7483 115.876 19.0223 115.586 18.2236C115.368 17.4976 115.949 16.6989 116.675 16.6989H116.747C117.256 16.6989 117.691 17.062 117.836 17.5702C117.982 18.0784 118.272 18.4414 118.708 18.8045C119.361 19.3127 120.087 19.5305 121.031 19.5305C121.83 19.5305 122.483 19.3127 122.991 18.9497C123.5 18.5866 123.79 18.0058 123.79 17.3524C123.79 16.6989 123.5 16.1181 122.991 15.8277C122.483 15.4647 121.684 15.1743 120.668 14.8838C120.16 14.7386 119.652 14.5934 119.361 14.5208C118.998 14.3756 118.635 14.2304 118.127 14.0126C117.619 13.7948 117.256 13.5044 116.965 13.2139C116.675 12.9235 116.384 12.5605 116.167 12.1249C115.949 11.6893 115.803 11.1084 115.803 10.5276C115.803 9.22072 116.239 8.20426 117.183 7.47822C118.127 6.75218 119.288 6.38916 120.741 6.38916C122.338 6.38916 123.572 6.82478 124.516 7.69603C124.952 8.13166 125.315 8.56728 125.532 9.00291C125.895 9.80155 125.315 10.6728 124.443 10.6728H124.298C123.863 10.6728 123.5 10.3824 123.282 10.0194C123.137 9.72895 122.919 9.43853 122.628 9.22072C122.12 8.78509 121.467 8.56728 120.668 8.56728C119.942 8.56728 119.361 8.78509 118.925 9.14811C118.49 9.51113 118.199 10.092 118.199 10.6002C118.199 11.2536 118.49 11.6893 118.925 11.9797C119.434 12.2701 120.16 12.5605 121.104 12.8509C121.684 12.9961 122.193 13.1413 122.556 13.2865C122.919 13.4318 123.354 13.577 123.863 13.8674C124.371 14.0852 124.806 14.3756 125.097 14.666C125.387 14.9564 125.678 15.3195 125.895 15.8277C126.258 16.1907 126.331 16.6989 126.331 17.2798Z" fill="#1C433A"/>
<path d="M144.7 6.31641C146.37 6.31641 147.677 6.96984 148.621 8.27672C149.564 9.58359 150 11.2535 150 13.4316V20.329C150 21.055 149.419 21.6359 148.693 21.6359C147.967 21.6359 147.386 21.055 147.386 20.329V14.3755C147.386 13.5768 147.386 12.8508 147.314 12.1973C147.241 11.6165 147.096 11.0357 146.951 10.4548C146.733 9.874 146.442 9.43838 146.079 9.14796C145.644 8.85755 145.136 8.71234 144.555 8.71234C143.538 8.71234 142.74 9.07536 142.014 9.8014C141.288 10.5274 140.925 11.5439 140.925 12.8508V20.329C140.925 21.055 140.344 21.6359 139.618 21.6359C138.892 21.6359 138.311 21.055 138.311 20.329V14.3755C138.311 13.5768 138.311 12.8508 138.238 12.1973C138.166 11.6165 138.02 11.0357 137.875 10.4548C137.657 9.874 137.367 9.43838 137.004 9.14796C136.568 8.85755 136.06 8.71234 135.479 8.71234C134.463 8.71234 133.592 9.07536 132.865 9.874C132.139 10.6726 131.776 11.6891 131.776 13.0686V20.329C131.776 21.055 131.196 21.6359 130.47 21.6359C129.743 21.6359 129.163 21.055 129.163 20.329V7.47807C129.163 6.89724 129.598 6.46161 130.179 6.46161C130.615 6.46161 130.978 6.75203 131.123 7.18765L131.413 8.13151H131.849C132.938 6.89724 134.172 6.31641 135.697 6.31641C137.367 6.31641 138.746 7.11505 139.908 8.71234H140.416C141.288 7.18765 142.812 6.31641 144.7 6.31641Z" fill="#1C433A"/>
<path d="M18.514 14.7386C18.514 12.1248 16.4085 10.0193 13.7948 10.0193C11.181 10.0193 9.0755 12.1248 9.0755 14.7386C9.0755 17.3523 11.181 19.4578 13.7948 19.4578C16.4085 19.4578 18.514 17.3523 18.514 14.7386ZM10.9632 14.7386C10.9632 13.2139 12.1975 11.907 13.7948 11.907C15.3921 11.907 16.6263 13.1413 16.6263 14.7386C16.6263 16.3358 15.3921 17.5701 13.7948 17.5701C12.1975 17.5701 10.9632 16.2632 10.9632 14.7386Z" fill="#212121"/>
<path d="M22.7977 6.67946C23.0155 6.67946 23.3059 6.60686 23.5237 6.38905C23.8867 6.02603 23.8867 5.37259 23.5237 5.00957C23.1607 4.64655 22.5072 4.64655 22.1442 5.00957C21.7812 5.37259 21.7812 6.02603 22.1442 6.38905C22.2894 6.60686 22.5072 6.67946 22.7977 6.67946Z" fill="#212121"/>
<path d="M24.8306 9.3658C24.9758 9.3658 25.1936 9.29319 25.3388 9.22059C25.7745 8.93017 25.9923 8.34934 25.7019 7.91371C25.4114 7.47809 24.8306 7.26028 24.395 7.55069C23.9594 7.84111 23.7415 8.42194 24.032 8.85757C24.1046 9.14798 24.4676 9.3658 24.8306 9.3658Z" fill="#212121"/>
<path d="M25.121 11.6892C25.2662 12.1248 25.6292 12.4152 26.0649 12.4152C26.1375 12.4152 26.2101 12.4152 26.2827 12.4152C26.7909 12.27 27.0813 11.7618 27.0087 11.1809C26.8635 10.6727 26.3553 10.3823 25.7744 10.4549C25.2662 10.6727 24.9758 11.1809 25.121 11.6892Z" fill="#212121"/>
<path d="M16.7716 3.33975C16.8442 3.33975 16.9168 3.33975 16.9894 3.33975C17.425 3.33975 17.788 3.04933 17.9332 2.61371C18.151 2.17808 17.788 1.59725 17.2798 1.45204C16.7716 1.30683 16.1907 1.59725 16.1181 2.17808C15.9729 2.68631 16.2633 3.26714 16.7716 3.33975Z" fill="#212121"/>
<path d="M19.6031 4.57426C19.7483 4.64686 19.8935 4.71946 20.1114 4.71946C20.4744 4.71946 20.7648 4.57426 20.9826 4.21124C21.273 3.77561 21.1278 3.12218 20.6196 2.90436C20.184 2.61395 19.5305 2.75916 19.3127 3.26738C19.0223 3.70301 19.1675 4.28384 19.6031 4.57426Z" fill="#212121"/>
<path d="M27.5169 14.7386C27.5169 14.666 27.5169 14.5934 27.5169 14.5208C27.5169 14.4482 27.5169 14.3756 27.4443 14.303C27.4443 14.2304 27.3717 14.1578 27.3717 14.1578C27.3717 14.0852 27.2991 14.0852 27.2265 14.0126C27.1539 13.94 27.1539 13.94 27.0813 13.8674C27.0087 13.8674 26.9361 13.7948 26.9361 13.7948C26.8635 13.7948 26.7909 13.7222 26.7183 13.7222C26.5731 13.7222 26.4279 13.7222 26.3553 13.7222C26.2827 13.7222 26.2101 13.7222 26.1375 13.7948C26.0649 13.7948 25.9923 13.8674 25.9923 13.8674C25.9197 13.8674 25.9197 13.94 25.847 14.0126C25.7744 14.0852 25.7744 14.0852 25.7018 14.1578C25.7018 14.2304 25.6292 14.303 25.6292 14.303C25.6292 14.3756 25.5566 14.4482 25.5566 14.5208C25.5566 14.5934 25.5566 14.666 25.5566 14.7386C25.5566 21.2004 20.2565 26.5005 13.7948 26.5005C7.26041 26.5005 2.03291 21.2004 2.03291 14.7386C2.03291 8.27686 7.33301 2.97676 13.7948 2.97676C13.8674 2.97676 13.94 2.97676 14.0126 2.97676C14.0852 2.97676 14.1578 2.97676 14.2304 2.90416C14.303 2.90416 14.3756 2.83155 14.3756 2.83155C14.4482 2.83155 14.4482 2.75895 14.5208 2.68635C14.4482 2.61374 14.5208 2.61374 14.5208 2.54114C14.5208 2.46853 14.5934 2.39593 14.5934 2.39593C14.5934 2.32332 14.666 2.25072 14.666 2.17812C14.666 2.10551 14.666 2.03291 14.666 1.9603C14.666 1.8877 14.666 1.8151 14.666 1.74249C14.666 1.66989 14.666 1.59728 14.5934 1.52468C14.5934 1.45208 14.5208 1.37947 14.5208 1.37947C14.5208 1.30687 14.4482 1.30687 14.3756 1.23426C14.303 1.16166 14.303 1.16166 14.2304 1.08906C14.1578 1.08906 14.0852 1.01645 14.0852 1.01645C14.0126 1.01645 13.94 0.943848 13.8674 0.943848C13.7948 0.943848 13.7222 0.943848 13.6496 0.943848C6.17134 1.01645 0 7.1878 0 14.7386C0 22.2894 6.17135 28.4608 13.7222 28.4608C21.273 28.4608 27.5169 22.362 27.5169 14.7386Z" fill="#212121"/>
<path d="M9.65637 22.0716C9.43856 22.5798 9.65637 23.1606 10.1646 23.3785C10.3098 23.4511 10.3824 23.4511 10.5276 23.4511C10.8906 23.4511 11.2537 23.2332 11.3989 22.8702C11.6167 22.362 11.3989 21.7812 10.8906 21.5634C10.455 21.3455 9.87418 21.5634 9.65637 22.0716Z" fill="#212121"/>
<path d="M7.84123 21.636C8.05904 21.636 8.34946 21.5634 8.56727 21.3456C8.93029 20.9826 8.93029 20.3291 8.56727 19.9661C8.20425 19.6031 7.55081 19.6031 7.18779 19.9661C6.82477 20.3291 6.82477 20.9826 7.18779 21.3456C7.333 21.5634 7.62342 21.636 7.84123 21.636Z" fill="#212121"/>
<path d="M5.66313 17.0619C5.1549 17.2797 4.93709 17.8605 5.1549 18.3688C5.30011 18.7318 5.66313 18.9496 6.02615 18.9496C6.17136 18.9496 6.24396 18.9496 6.38917 18.877C6.8974 18.6592 7.11521 18.0783 6.8974 17.5701C6.75219 17.0619 6.17136 16.8441 5.66313 17.0619Z" fill="#212121"/>
<path d="M12.8509 23.4511C12.8509 23.5237 12.9235 23.5963 12.9235 23.5963C12.9235 23.6689 12.9961 23.6689 13.0687 23.7415C13.1413 23.8141 13.1413 23.8141 13.214 23.8867C13.2866 23.8867 13.3592 23.9593 13.3592 23.9593C13.4318 23.9593 13.5044 24.0319 13.577 24.0319C13.6496 24.0319 13.7222 24.0319 13.7948 24.0319C18.9497 24.0319 23.0881 19.8209 23.0881 14.7386C23.0881 9.58374 18.8771 5.44531 13.7948 5.44531C8.6399 5.44531 4.50146 9.65635 4.50146 14.7386C4.50146 14.8112 4.50146 14.8838 4.50146 14.9564C4.50146 15.029 4.50147 15.1017 4.57407 15.1743C4.57407 15.2469 4.64667 15.3195 4.64667 15.3195C4.64667 15.3921 4.71928 15.3921 4.79188 15.4647C4.86449 15.5373 4.86449 15.5373 4.93709 15.6099C5.00969 15.6099 5.0823 15.6825 5.0823 15.6825C5.1549 15.6825 5.22751 15.7551 5.30011 15.7551C5.37271 15.7551 5.44532 15.7551 5.51792 15.7551C5.59053 15.7551 5.66313 15.7551 5.73573 15.7551C5.80834 15.7551 5.88094 15.7551 5.95355 15.6825C6.02615 15.6825 6.09875 15.6099 6.09875 15.6099C6.17136 15.6099 6.17136 15.5373 6.24396 15.4647C6.31657 15.3921 6.31657 15.3921 6.38917 15.3195C6.38917 15.2469 6.46177 15.1743 6.46177 15.1743C6.46177 15.1017 6.53438 15.029 6.53438 14.9564C6.53438 14.8838 6.53438 14.8112 6.53438 14.7386C6.53438 10.6728 9.80156 7.40562 13.8674 7.40562C17.9332 7.40562 21.2004 10.6728 21.2004 14.7386C21.2004 18.8045 17.9332 22.0716 13.8674 22.0716C13.7948 22.0716 13.7222 22.0716 13.6496 22.0716C13.577 22.0716 13.5044 22.0716 13.4318 22.1442C13.3592 22.1442 13.2866 22.2168 13.2866 22.2168C13.214 22.2168 13.214 22.2895 13.1413 22.3621C13.0687 22.4347 13.0687 22.4347 12.9961 22.5073C12.9961 22.5799 12.9235 22.6525 12.9235 22.6525C12.9235 22.7251 12.8509 22.7977 12.8509 22.8703C12.8509 22.9429 12.8509 23.0155 12.8509 23.0881C12.8509 23.1607 12.8509 23.2333 12.8509 23.3059C12.7783 23.3059 12.7783 23.3785 12.8509 23.4511Z" fill="#212121"/>
<path d="M46.9748 6.31641C48.9352 6.31641 50.5324 7.04245 51.9119 8.49453C53.2914 9.94661 53.9448 11.7617 53.9448 14.0124C53.9448 16.2632 53.2188 18.1509 51.9119 19.6029C50.5324 21.055 48.9352 21.7811 46.9748 21.7811C45.0145 21.7811 43.4899 20.9824 42.4008 19.3851V26.4277C42.4008 27.1538 41.82 27.7346 41.0939 27.7346C40.3679 27.7346 39.787 27.1538 39.787 26.4277V7.55067C39.787 6.96984 40.2227 6.53422 40.8035 6.53422C41.2391 6.53422 41.6748 6.82463 41.7474 7.26026L42.1104 8.42192H42.6186C43.7077 7.04245 45.1597 6.31641 46.9748 6.31641ZM46.757 19.3125C47.9913 19.3125 49.0078 18.8043 49.9516 17.8604C50.8229 16.9166 51.3311 15.6097 51.3311 14.085C51.3311 12.5604 50.8955 11.2535 49.9516 10.3096C49.0804 9.36578 47.9913 8.85755 46.757 8.85755C45.5954 8.85755 44.5789 9.29317 43.7077 10.1644C42.8364 11.0357 42.4008 12.3425 42.4008 14.085C42.4008 15.8275 42.8364 17.1344 43.7077 18.0057C44.5789 18.8769 45.5954 19.3125 46.757 19.3125Z" fill="#212121"/>
<path d="M57.7929 8.42192C59.1723 7.04245 60.9148 6.31641 62.8751 6.31641C64.8355 6.31641 66.5053 7.04245 67.8848 8.49453C68.9013 9.58359 69.4821 11.0357 69.6999 12.7782C69.7725 13.7946 68.9739 14.7385 67.9574 14.7385H58.3011C58.4463 16.118 58.8819 17.2796 59.7532 18.0783C60.5518 18.8769 61.6409 19.3125 62.9477 19.3125C64.3998 19.3125 65.5615 18.8043 66.3601 17.8605C66.578 17.57 66.941 17.4248 67.304 17.4248C68.3204 17.4248 68.9013 18.6591 68.2478 19.3851C67.8122 19.8208 67.3766 20.2564 66.8684 20.6194C65.7067 21.4181 64.3998 21.7811 63.0204 21.7811C61.06 21.7811 59.3175 21.055 57.9381 19.6029C56.5586 18.1509 55.8325 16.2632 55.8325 13.9398C55.6873 11.6891 56.4134 9.87401 57.7929 8.42192ZM65.6341 9.65619C64.9081 8.93015 63.9642 8.56713 62.8751 8.56713C61.7861 8.56713 60.8422 8.93015 60.0436 9.65619C59.2449 10.3822 58.7367 11.3261 58.5189 12.5604H67.0862C66.7958 11.3261 66.3601 10.3822 65.6341 9.65619Z" fill="#212121"/>
<path d="M78.848 21.7809C76.8877 21.7809 75.2178 21.0549 73.7658 19.5302C72.3137 18.0781 71.5876 16.1904 71.5876 14.0123C71.5876 11.8342 72.3137 10.0191 73.7658 8.49438C75.2178 7.0423 76.8877 6.24365 78.848 6.24365C80.8084 6.24365 82.4782 6.96969 83.9303 8.49438C85.3824 9.94646 86.1084 11.8342 86.1084 14.0123C86.1084 16.1904 85.3824 18.0781 83.9303 19.5302C82.4782 21.0549 80.8084 21.7809 78.848 21.7809ZM75.5083 17.7877C76.3795 18.8042 77.4686 19.3124 78.848 19.3124C80.2275 19.3124 81.3166 18.8042 82.1878 17.7877C83.0591 16.7712 83.4947 15.537 83.4947 14.0849C83.4947 12.6328 83.0591 11.3259 82.1878 10.3821C81.3166 9.36563 80.2275 8.8574 78.848 8.8574C77.4686 8.8574 76.3795 9.36563 75.5083 10.3821C74.637 11.3985 74.2014 12.6328 74.2014 14.0849C74.2014 15.537 74.637 16.7712 75.5083 17.7877Z" fill="#212121"/>
<path d="M95.4744 6.31641C97.4347 6.31641 99.032 7.04245 100.411 8.49453C101.791 9.94661 102.444 11.7617 102.444 14.0124C102.444 16.2632 101.791 18.0783 100.411 19.5303C99.032 20.9824 97.4347 21.7085 95.4744 21.7085C93.5141 21.7085 91.9894 20.9098 90.9003 19.3125V26.3551C90.9003 27.0812 90.3195 27.662 89.5934 27.662C88.8674 27.662 88.2866 27.0812 88.2866 26.3551V7.47807C88.2866 6.89724 88.7222 6.46161 89.303 6.46161C89.7386 6.46161 90.1743 6.75203 90.2469 7.18765L90.6099 8.34932H91.1181C92.2072 7.04245 93.6593 6.31641 95.4744 6.31641ZM95.2565 19.3125C96.4908 19.3125 97.5073 18.8043 98.4511 17.8604C99.3224 16.9166 99.8306 15.6097 99.8306 14.085C99.8306 12.5604 99.395 11.2535 98.4511 10.3096C97.5799 9.36578 96.4908 8.85755 95.2565 8.85755C94.0949 8.85755 93.0784 9.29317 92.2072 10.1644C91.3359 11.0357 90.9003 12.3425 90.9003 14.085C90.9003 15.8275 91.3359 17.1344 92.2072 18.0057C93.0784 18.8769 94.0949 19.3125 95.2565 19.3125Z" fill="#212121"/>
<path d="M106.075 0.14502C106.801 0.14502 107.381 0.725852 107.381 1.45189V20.3289C107.381 21.055 106.801 21.6358 106.075 21.6358C105.349 21.6358 104.768 21.055 104.768 20.3289V1.45189C104.768 0.725852 105.349 0.14502 106.075 0.14502Z" fill="#212121"/>
<path d="M111.665 3.84787C111.157 3.84787 110.649 3.63005 110.286 3.26703C109.923 2.90401 109.705 2.39578 109.705 1.88756C109.705 1.30672 109.923 0.871099 110.286 0.508079C110.649 0.145058 111.157 -0.0727539 111.665 -0.0727539C112.173 -0.0727539 112.609 0.145058 113.045 0.508079C113.408 0.871099 113.625 1.30672 113.625 1.88756C113.625 2.39578 113.408 2.83141 113.045 3.26703C112.609 3.70266 112.173 3.84787 111.665 3.84787ZM112.972 7.84109V20.329C112.972 21.055 112.391 21.6359 111.665 21.6359C110.939 21.6359 110.358 21.055 110.358 20.329V7.84109C110.358 7.11505 110.939 6.53422 111.665 6.53422C112.391 6.53422 112.972 7.11505 112.972 7.84109Z" fill="#212121"/>
<path d="M126.331 17.2798C126.331 18.6592 125.823 19.7483 124.879 20.547C123.863 21.3456 122.628 21.7812 121.104 21.7812C119.434 21.7812 118.054 21.273 116.965 20.3291C116.312 19.7483 115.876 19.0223 115.586 18.2236C115.368 17.4976 115.949 16.6989 116.675 16.6989H116.747C117.256 16.6989 117.691 17.062 117.836 17.5702C117.982 18.0784 118.272 18.4414 118.708 18.8045C119.361 19.3127 120.087 19.5305 121.031 19.5305C121.83 19.5305 122.483 19.3127 122.991 18.9497C123.5 18.5866 123.79 18.0058 123.79 17.3524C123.79 16.6989 123.5 16.1181 122.991 15.8277C122.483 15.4647 121.684 15.1743 120.668 14.8838C120.16 14.7386 119.652 14.5934 119.361 14.5208C118.998 14.3756 118.635 14.2304 118.127 14.0126C117.619 13.7948 117.256 13.5044 116.965 13.2139C116.675 12.9235 116.384 12.5605 116.167 12.1249C115.949 11.6893 115.803 11.1084 115.803 10.5276C115.803 9.22072 116.239 8.20426 117.183 7.47822C118.127 6.75218 119.288 6.38916 120.741 6.38916C122.338 6.38916 123.572 6.82478 124.516 7.69603C124.952 8.13166 125.315 8.56728 125.532 9.00291C125.895 9.80155 125.315 10.6728 124.443 10.6728H124.298C123.863 10.6728 123.5 10.3824 123.282 10.0194C123.137 9.72895 122.919 9.43853 122.628 9.22072C122.12 8.78509 121.467 8.56728 120.668 8.56728C119.942 8.56728 119.361 8.78509 118.925 9.14811C118.49 9.51113 118.199 10.092 118.199 10.6002C118.199 11.2536 118.49 11.6893 118.925 11.9797C119.434 12.2701 120.16 12.5605 121.104 12.8509C121.684 12.9961 122.193 13.1413 122.556 13.2865C122.919 13.4318 123.354 13.577 123.863 13.8674C124.371 14.0852 124.806 14.3756 125.097 14.666C125.387 14.9564 125.678 15.3195 125.895 15.8277C126.258 16.1907 126.331 16.6989 126.331 17.2798Z" fill="#212121"/>
<path d="M144.7 6.31641C146.37 6.31641 147.677 6.96984 148.621 8.27672C149.564 9.58359 150 11.2535 150 13.4316V20.329C150 21.055 149.419 21.6359 148.693 21.6359C147.967 21.6359 147.386 21.055 147.386 20.329V14.3755C147.386 13.5768 147.386 12.8508 147.314 12.1973C147.241 11.6165 147.096 11.0357 146.951 10.4548C146.733 9.874 146.442 9.43838 146.079 9.14796C145.644 8.85755 145.136 8.71234 144.555 8.71234C143.538 8.71234 142.74 9.07536 142.014 9.8014C141.288 10.5274 140.925 11.5439 140.925 12.8508V20.329C140.925 21.055 140.344 21.6359 139.618 21.6359C138.892 21.6359 138.311 21.055 138.311 20.329V14.3755C138.311 13.5768 138.311 12.8508 138.238 12.1973C138.166 11.6165 138.02 11.0357 137.875 10.4548C137.657 9.874 137.367 9.43838 137.004 9.14796C136.568 8.85755 136.06 8.71234 135.479 8.71234C134.463 8.71234 133.592 9.07536 132.865 9.874C132.139 10.6726 131.776 11.6891 131.776 13.0686V20.329C131.776 21.055 131.196 21.6359 130.47 21.6359C129.743 21.6359 129.163 21.055 129.163 20.329V7.47807C129.163 6.89724 129.598 6.46161 130.179 6.46161C130.615 6.46161 130.978 6.75203 131.123 7.18765L131.413 8.13151H131.849C132.938 6.89724 134.172 6.31641 135.697 6.31641C137.367 6.31641 138.746 7.11505 139.908 8.71234H140.416C141.288 7.18765 142.812 6.31641 144.7 6.31641Z" fill="#212121"/>
</g>
<defs>
<clipPath id="clip0">
<rect width="150" height="28.4608" fill="white"/>
</clipPath>
</defs>
</svg>
