<svg width="73" height="9" viewBox="0 0 73 9" fill="none" xmlns="http://www.w3.org/2000/svg">
<path fill-rule="evenodd" clip-rule="evenodd" d="M55.5599 0.939001C54.8356 0.917441 50.6292 0.766261 46.2893 0.595521C36.3389 0.237002 24.0114 0.586972 13.5615 1.46558C4.30538 2.26542 0.30966 3.15951 0.374638 4.26798C0.403053 4.69481 0.793632 5.13242 1.22664 5.28038C1.78712 5.48928 1.98941 5.34984 1.87197 4.90997C1.76059 4.42871 2.66694 4.1388 5.71994 3.7829C12.0667 2.97958 24.1696 2.30083 33.0941 2.21322C33.869 2.19992 32.7785 2.50513 30.723 2.88033C26.4784 3.61115 22.2501 4.85158 21.708 5.44845C21.4935 5.67065 21.5604 6.14538 21.868 6.52858C22.3294 7.10337 22.9142 7.14675 25.866 6.86057C31.6301 6.31004 40.7893 6.17227 48.6618 6.43777C60.2389 6.86549 60.3724 6.88505 60.0144 7.46662C59.6443 8.13095 59.8224 8.15703 62.2725 7.88189C64.4939 7.61554 65.3679 7.23634 65.4709 6.53289C65.6043 5.62254 64.3316 5.30933 58.974 4.94725C52.1292 4.49415 42.9922 4.17023 38.0757 4.21091C33.9787 4.24481 39.1075 3.68576 45.5595 3.40506C51.5989 3.14845 53.8548 3.26755 62.037 4.21242C67.2692 4.80974 71.6678 5.20041 71.8641 5.10235C72.6227 4.57946 71.8091 3.61495 70.243 3.13196C68.511 2.54013 58.006 1.00142 55.5599 0.939001Z" fill="#E8F0D0"/>
</svg>
