<svg width="1149" height="1149" viewBox="0 0 1149 1149" fill="none" xmlns="http://www.w3.org/2000/svg">
<mask id="path-1-inside-1" fill="white">
<path d="M861.065 287.022C898.757 324.714 928.656 369.461 949.055 418.708C969.454 467.956 979.953 520.739 979.953 574.043C979.953 627.348 969.454 680.131 949.055 729.378C928.657 778.626 898.757 823.373 861.065 861.065L733.473 733.472C754.409 712.536 771.017 687.681 782.348 660.326C793.678 632.971 799.51 603.652 799.51 574.043C799.51 544.435 793.678 515.116 782.348 487.761C771.017 460.406 754.409 435.551 733.473 414.614L861.065 287.022Z"/>
</mask>
<path d="M861.065 287.022C898.757 324.714 928.656 369.461 949.055 418.708C969.454 467.956 979.953 520.739 979.953 574.043C979.953 627.348 969.454 680.131 949.055 729.378C928.657 778.626 898.757 823.373 861.065 861.065L733.473 733.472C754.409 712.536 771.017 687.681 782.348 660.326C793.678 632.971 799.51 603.652 799.51 574.043C799.51 544.435 793.678 515.116 782.348 487.761C771.017 460.406 754.409 435.551 733.473 414.614L861.065 287.022Z" stroke="#212121" stroke-width="2" mask="url(#path-1-inside-1)"/>
<mask id="path-2-inside-2" fill="white">
<path d="M861.065 861.066C823.373 898.758 778.626 928.657 729.378 949.056C680.131 969.455 627.348 979.954 574.043 979.954C520.739 979.954 467.956 969.455 418.709 949.056C369.461 928.657 324.714 898.758 287.022 861.066L414.614 733.473C435.551 754.41 460.406 771.017 487.761 782.348C515.116 793.679 544.435 799.511 574.043 799.511C603.652 799.511 632.971 793.679 660.326 782.348C687.681 771.017 712.536 754.41 733.472 733.473L861.065 861.066Z"/>
</mask>
<path d="M861.065 861.066C823.373 898.758 778.626 928.657 729.378 949.056C680.131 969.455 627.348 979.954 574.043 979.954C520.739 979.954 467.956 969.455 418.709 949.056C369.461 928.657 324.714 898.758 287.022 861.066L414.614 733.473C435.551 754.41 460.406 771.017 487.761 782.348C515.116 793.679 544.435 799.511 574.043 799.511C603.652 799.511 632.971 793.679 660.326 782.348C687.681 771.017 712.536 754.41 733.472 733.473L861.065 861.066Z" stroke="#E8F0D0" stroke-width="400" mask="url(#path-2-inside-2)"/>
<mask id="path-3-inside-3" fill="white">
<path d="M287.022 861.065C249.33 823.373 219.431 778.626 199.032 729.378C178.633 680.131 168.134 627.348 168.134 574.043C168.134 520.739 178.633 467.956 199.032 418.708C219.431 369.461 249.33 324.714 287.022 287.022L414.615 414.614C393.678 435.551 377.071 460.406 365.74 487.761C354.409 515.116 348.577 544.435 348.577 574.043C348.577 603.652 354.409 632.971 365.74 660.326C377.071 687.681 393.678 712.536 414.615 733.472L287.022 861.065Z"/>
</mask>
<path d="M287.022 861.065C249.33 823.373 219.431 778.626 199.032 729.378C178.633 680.131 168.134 627.348 168.134 574.043C168.134 520.739 178.633 467.956 199.032 418.708C219.431 369.461 249.33 324.714 287.022 287.022L414.615 414.614C393.678 435.551 377.071 460.406 365.74 487.761C354.409 515.116 348.577 544.435 348.577 574.043C348.577 603.652 354.409 632.971 365.74 660.326C377.071 687.681 393.678 712.536 414.615 733.472L287.022 861.065Z" stroke="#212121" stroke-width="2" mask="url(#path-3-inside-3)"/>
<mask id="path-4-inside-4" fill="white">
<path d="M286.022 288.025C324.188 249.593 369.659 219.187 419.757 198.599C469.855 178.012 523.567 167.659 577.728 168.15C631.889 168.642 685.404 179.968 735.12 201.462C784.836 222.955 829.748 254.181 867.21 293.3L736.886 418.102C716.077 396.373 691.131 379.028 663.515 367.089C635.9 355.15 606.174 348.859 576.09 348.586C546.006 348.313 516.171 354.064 488.344 365.499C460.516 376.935 435.259 393.824 414.059 415.172L286.022 288.025Z"/>
</mask>
<path d="M286.022 288.025C324.188 249.593 369.659 219.187 419.757 198.599C469.855 178.012 523.567 167.659 577.728 168.15C631.889 168.642 685.404 179.968 735.12 201.462C784.836 222.955 829.748 254.181 867.21 293.3L736.886 418.102C716.077 396.373 691.131 379.028 663.515 367.089C635.9 355.15 606.174 348.859 576.09 348.586C546.006 348.313 516.171 354.064 488.344 365.499C460.516 376.935 435.259 393.824 414.059 415.172L286.022 288.025Z" stroke="#1C433A" stroke-width="400" mask="url(#path-4-inside-4)"/>
<circle cx="799.044" cy="354" r="29" fill="#1C433A"/>
<circle cx="346.044" cy="354" r="29" fill="#FBF9F4"/>
</svg>
